<svg width="800" height="640" viewBox="0 0 800 640" fill="none" xmlns="http://www.w3.org/2000/svg">
  <rect width="800" height="640" rx="32" fill="#F8FBFF"/>
  <rect x="48" y="52" width="704" height="536" rx="28" fill="white"/>
  <rect x="96" y="110" width="244" height="184" rx="24" fill="url(#paint0_linear_2_14)"/>
  <circle cx="172" cy="182" r="42" fill="white" fill-opacity="0.22"/>
  <circle cx="260" cy="222" r="56" fill="white" fill-opacity="0.14"/>
  <path d="M152 193L169 214L211 164" stroke="white" stroke-width="14" stroke-linecap="round" stroke-linejoin="round"/>
  <rect x="370" y="110" width="286" height="22" rx="11" fill="#1E3A8A"/>
  <rect x="370" y="148" width="252" height="16" rx="8" fill="#94A3B8"/>
  <rect x="370" y="176" width="236" height="16" rx="8" fill="#CBD5E1"/>
  <rect x="370" y="224" width="118" height="36" rx="18" fill="#E0ECFF"/>
  <rect x="496" y="224" width="160" height="36" rx="18" fill="#DDF7F4"/>
  <rect x="96" y="332" width="560" height="188" rx="28" fill="#F5F7FA"/>
  <rect x="128" y="368" width="148" height="120" rx="24" fill="#E0ECFF"/>
  <rect x="302" y="368" width="148" height="120" rx="24" fill="#ECFDF5"/>
  <rect x="476" y="368" width="148" height="120" rx="24" fill="#FEF3C7"/>
  <circle cx="202" cy="404" r="18" fill="#2563EB"/>
  <circle cx="376" cy="404" r="18" fill="#14B8A6"/>
  <circle cx="550" cy="404" r="18" fill="#F59E0B"/>
  <rect x="156" y="438" width="90" height="12" rx="6" fill="#1E3A8A"/>
  <rect x="330" y="438" width="90" height="12" rx="6" fill="#0F766E"/>
  <rect x="504" y="438" width="90" height="12" rx="6" fill="#B45309"/>
  <rect x="156" y="462" width="74" height="10" rx="5" fill="#94A3B8"/>
  <rect x="330" y="462" width="74" height="10" rx="5" fill="#94A3B8"/>
  <rect x="504" y="462" width="74" height="10" rx="5" fill="#94A3B8"/>
  <path d="M276 428H302" stroke="#CBD5E1" stroke-width="8" stroke-linecap="round"/>
  <path d="M450 428H476" stroke="#CBD5E1" stroke-width="8" stroke-linecap="round"/>
  <defs>
    <linearGradient id="paint0_linear_2_14" x1="96" y1="110" x2="340" y2="294" gradientUnits="userSpaceOnUse">
      <stop stop-color="#1E3A8A"/>
      <stop offset="0.6" stop-color="#2563EB"/>
      <stop offset="1" stop-color="#14B8A6"/>
    </linearGradient>
  </defs>
</svg>
