<svg width="760" height="620" viewBox="0 0 760 620" fill="none" xmlns="http://www.w3.org/2000/svg">
  <rect width="760" height="620" rx="32" fill="url(#bg)"/>
  <circle cx="132" cy="138" r="64" fill="#E0ECFF"/>
  <circle cx="214" cy="258" r="52" fill="#DBEAFE"/>
  <circle cx="126" cy="366" r="58" fill="#E6FFFB"/>
  <circle cx="246" cy="472" r="46" fill="#F5F7FA"/>
  <rect x="87" y="118" width="90" height="14" rx="7" fill="#1E3A8A"/>
  <rect x="181" y="252" width="66" height="12" rx="6" fill="#2563EB"/>
  <rect x="86" y="360" width="82" height="12" rx="6" fill="#14B8A6"/>
  <rect x="214" y="466" width="72" height="12" rx="6" fill="#475569"/>
  <path d="M198 152C304 196 364 228 438 310" stroke="#93C5FD" stroke-width="10" stroke-linecap="round" stroke-dasharray="1 20"/>
  <path d="M246 274C336 292 394 310 438 310" stroke="#14B8A6" stroke-width="10" stroke-linecap="round" stroke-dasharray="1 20"/>
  <path d="M182 386C292 364 360 340 438 310" stroke="#60A5FA" stroke-width="10" stroke-linecap="round" stroke-dasharray="1 20"/>
  <path d="M286 490C354 432 404 382 438 310" stroke="#94A3B8" stroke-width="10" stroke-linecap="round" stroke-dasharray="1 20"/>
  <circle cx="484" cy="310" r="84" fill="#FFFFFF"/>
  <circle cx="484" cy="310" r="58" fill="#1E3A8A"/>
  <path d="M457 309L477 329L515 289" stroke="#E0ECFF" stroke-width="12" stroke-linecap="round" stroke-linejoin="round"/>
  <rect x="574" y="162" width="122" height="88" rx="24" fill="#0F172A"/>
  <rect x="594" y="190" width="82" height="10" rx="5" fill="#E0ECFF"/>
  <rect x="594" y="210" width="58" height="10" rx="5" fill="#475569"/>
  <rect x="560" y="352" width="146" height="112" rx="24" fill="#FFFFFF"/>
  <rect x="586" y="386" width="94" height="12" rx="6" fill="#2563EB"/>
  <rect x="586" y="410" width="70" height="10" rx="5" fill="#94A3B8"/>
  <rect x="586" y="430" width="56" height="10" rx="5" fill="#CBD5E1"/>
  <path d="M544 272C580 248 608 234 650 226" stroke="#14B8A6" stroke-width="10" stroke-linecap="round"/>
  <path d="M548 346C580 368 602 382 650 396" stroke="#2563EB" stroke-width="10" stroke-linecap="round"/>
  <defs>
    <linearGradient id="bg" x1="34" y1="28" x2="726" y2="580" gradientUnits="userSpaceOnUse">
      <stop stop-color="#F8FAFC"/>
      <stop offset="0.52" stop-color="#FFFFFF"/>
      <stop offset="1" stop-color="#EFF6FF"/>
    </linearGradient>
  </defs>
</svg>
