<svg width="1400" height="520" viewBox="0 0 1400 520" fill="none" xmlns="http://www.w3.org/2000/svg">
  <rect width="1400" height="520" rx="28" fill="url(#bg)"/>
  <rect x="58" y="86" width="362" height="348" rx="28" fill="#FFFFFF"/>
  <rect x="518" y="86" width="362" height="348" rx="28" fill="#FFFFFF"/>
  <rect x="978" y="86" width="362" height="348" rx="28" fill="#FFFFFF"/>
  <circle cx="128" cy="142" r="30" fill="#E0ECFF"/>
  <circle cx="588" cy="142" r="30" fill="#DBEAFE"/>
  <circle cx="1048" cy="142" r="30" fill="#CCFBF1"/>
  <text x="116" y="151" fill="#1E3A8A" font-family="Arial, sans-serif" font-size="24" font-weight="700">01</text>
  <text x="576" y="151" fill="#1E3A8A" font-family="Arial, sans-serif" font-size="24" font-weight="700">02</text>
  <text x="1036" y="151" fill="#0F766E" font-family="Arial, sans-serif" font-size="24" font-weight="700">03</text>
  <text x="104" y="206" fill="#0F172A" font-family="Arial, sans-serif" font-size="38" font-weight="700">Digital Skills</text>
  <text x="564" y="206" fill="#0F172A" font-family="Arial, sans-serif" font-size="38" font-weight="700">Courses</text>
  <text x="1024" y="206" fill="#0F172A" font-family="Arial, sans-serif" font-size="38" font-weight="700">Career Guides</text>
  <rect x="104" y="240" width="164" height="12" rx="6" fill="#2563EB"/>
  <rect x="104" y="266" width="216" height="10" rx="5" fill="#94A3B8"/>
  <rect x="104" y="286" width="184" height="10" rx="5" fill="#CBD5E1"/>
  <rect x="564" y="240" width="178" height="12" rx="6" fill="#1E3A8A"/>
  <rect x="564" y="266" width="220" height="10" rx="5" fill="#94A3B8"/>
  <rect x="564" y="286" width="190" height="10" rx="5" fill="#CBD5E1"/>
  <rect x="1024" y="240" width="174" height="12" rx="6" fill="#14B8A6"/>
  <rect x="1024" y="266" width="214" height="10" rx="5" fill="#94A3B8"/>
  <rect x="1024" y="286" width="180" height="10" rx="5" fill="#CBD5E1"/>
  <rect x="104" y="332" width="270" height="62" rx="18" fill="#E0ECFF"/>
  <rect x="564" y="332" width="270" height="62" rx="18" fill="#F5F7FA"/>
  <rect x="1024" y="332" width="270" height="62" rx="18" fill="#E6FFFB"/>
  <path d="M430 258H490" stroke="#14B8A6" stroke-width="10" stroke-linecap="round"/>
  <path d="M890 258H950" stroke="#14B8A6" stroke-width="10" stroke-linecap="round"/>
  <path d="M472 230L504 258L472 286" stroke="#14B8A6" stroke-width="10" stroke-linecap="round" stroke-linejoin="round"/>
  <path d="M932 230L964 258L932 286" stroke="#14B8A6" stroke-width="10" stroke-linecap="round" stroke-linejoin="round"/>
  <defs>
    <linearGradient id="bg" x1="42" y1="32" x2="1330" y2="490" gradientUnits="userSpaceOnUse">
      <stop stop-color="#EFF6FF"/>
      <stop offset="1" stop-color="#F0FDFA"/>
    </linearGradient>
  </defs>
</svg>
