<svg width="720" height="560" viewBox="0 0 720 560" fill="none" xmlns="http://www.w3.org/2000/svg">
  <rect width="720" height="560" rx="32" fill="url(#bg)"/>
  <rect x="44" y="48" width="632" height="464" rx="28" fill="white" fill-opacity="0.88"/>
  <rect x="78" y="86" width="202" height="192" rx="24" fill="#E0ECFF"/>
  <circle cx="132" cy="136" r="28" fill="#2563EB"/>
  <rect x="172" y="120" width="72" height="11" rx="5.5" fill="#1E3A8A"/>
  <rect x="172" y="142" width="54" height="9" rx="4.5" fill="#93C5FD"/>
  <rect x="108" y="190" width="136" height="14" rx="7" fill="#BFDBFE"/>
  <rect x="108" y="216" width="104" height="14" rx="7" fill="#DBEAFE"/>
  <rect x="300" y="86" width="342" height="106" rx="24" fill="#0F172A"/>
  <rect x="330" y="118" width="100" height="12" rx="6" fill="#E0ECFF"/>
  <rect x="330" y="142" width="140" height="12" rx="6" fill="#475569"/>
  <rect x="516" y="110" width="92" height="58" rx="18" fill="#14B8A6"/>
  <rect x="78" y="302" width="564" height="166" rx="24" fill="#F5F7FA"/>
  <rect x="108" y="336" width="136" height="16" rx="8" fill="#2563EB"/>
  <rect x="108" y="365" width="210" height="10" rx="5" fill="#94A3B8"/>
  <rect x="108" y="388" width="180" height="10" rx="5" fill="#CBD5E1"/>
  <path d="M390 418C390 398.118 406.118 382 426 382H602V418C602 437.882 585.882 454 566 454H390V418Z" fill="#1E3A8A"/>
  <circle cx="436" cy="418" r="18" fill="#14B8A6"/>
  <rect x="466" y="404" width="90" height="10" rx="5" fill="#E0ECFF"/>
  <rect x="466" y="424" width="62" height="10" rx="5" fill="#93C5FD"/>
  <path d="M244 278C299.333 243.333 351 226 399 226C447 226 499.667 243.333 557 278" stroke="#14B8A6" stroke-width="10" stroke-linecap="round" stroke-dasharray="1 22"/>
  <defs>
    <linearGradient id="bg" x1="34" y1="26" x2="670" y2="530" gradientUnits="userSpaceOnUse">
      <stop stop-color="#EFF6FF"/>
      <stop offset="0.55" stop-color="#FFFFFF"/>
      <stop offset="1" stop-color="#E6FFFB"/>
    </linearGradient>
  </defs>
</svg>
