<svg width="220" height="64" viewBox="0 0 220 64" fill="none" xmlns="http://www.w3.org/2000/svg">
  <rect width="220" height="64" rx="20" fill="white"/>
  <rect x="4" y="4" width="56" height="56" rx="18" fill="url(#paint0_linear_1_2)"/>
  <path d="M18 20L27.5 44L37 20H42L30 50H25L13 20H18Z" fill="white"/>
  <path d="M83 22.5C86.5 22.5 89.1 23.2 90.8 24.7C92.6 26.1 93.4 28.1 93.4 30.5C93.4 32 93 33.3 92.2 34.5C91.4 35.6 90.1 36.4 88.4 36.9C90.5 37.3 92 38.2 93 39.5C94.1 40.7 94.6 42.3 94.6 44.1C94.6 46.8 93.6 49 91.5 50.6C89.5 52.1 86.7 52.9 83.2 52.9H68V22.5H83ZM82.5 35.1C84.3 35.1 85.7 34.8 86.5 34.1C87.5 33.4 88 32.4 88 31C88 29.6 87.5 28.5 86.5 27.9C85.6 27.2 84.2 26.8 82.4 26.8H73V35.1H82.5ZM83.3 48.5C85.4 48.5 87 48.1 88 47.3C89.1 46.4 89.6 45.2 89.6 43.6C89.6 42 89 40.8 87.9 40C86.8 39.1 85.2 38.7 83 38.7H73V48.5H83.3Z" fill="#0F172A"/>
  <path d="M114.1 53.3C111.7 53.3 109.6 52.9 107.8 52.2C106.1 51.4 104.5 50.4 103.2 49.1L106.3 45.3C107.5 46.4 108.8 47.2 110.1 47.8C111.4 48.3 112.8 48.6 114.4 48.6C116 48.6 117.2 48.3 118.1 47.8C119 47.2 119.4 46.5 119.4 45.5C119.4 44.9 119.3 44.4 119 44.1C118.8 43.7 118.4 43.4 117.8 43.1C117.2 42.8 116.5 42.5 115.5 42.3C114.6 42 113.4 41.7 112.1 41.3C110.6 40.9 109.3 40.5 108.1 40C107 39.5 106 38.9 105.2 38.2C104.4 37.4 103.8 36.5 103.3 35.4C102.9 34.3 102.7 32.9 102.7 31.4C102.7 29.9 103 28.6 103.6 27.4C104.3 26.2 105.1 25.1 106.2 24.2C107.3 23.3 108.6 22.6 110.1 22.1C111.6 21.6 113.2 21.3 115 21.3C117.2 21.3 119.2 21.6 120.9 22.3C122.5 22.9 124 23.9 125.3 25.1L122.6 29.2C121.4 28.3 120.2 27.6 119 27.2C117.8 26.7 116.5 26.5 115.1 26.5C113.6 26.5 112.5 26.8 111.7 27.4C111 27.9 110.6 28.7 110.6 29.6C110.6 30.2 110.7 30.7 111 31.1C111.3 31.5 111.7 31.8 112.3 32.1C112.9 32.4 113.7 32.7 114.7 33C115.7 33.2 116.9 33.5 118.3 33.9C119.8 34.3 121.2 34.8 122.4 35.3C123.6 35.8 124.5 36.4 125.3 37.2C126.1 37.9 126.7 38.9 127.1 39.9C127.5 41 127.7 42.2 127.7 43.6C127.7 45.2 127.4 46.7 126.8 47.9C126.2 49.2 125.3 50.2 124.2 51.1C123.1 52 121.8 52.6 120.2 53C118.6 53.4 116.9 53.6 115.1 53.3Z" fill="#0F172A"/>
  <path d="M136 48.8L139.3 44.9C140.7 46.1 142.1 47 143.6 47.7C145.1 48.3 146.7 48.6 148.5 48.6C150.1 48.6 151.4 48.3 152.3 47.8C153.2 47.2 153.6 46.4 153.6 45.4C153.6 44.9 153.5 44.4 153.2 44C153 43.6 152.6 43.3 152 43C151.4 42.7 150.6 42.4 149.7 42.1C148.7 41.9 147.5 41.6 146.1 41.2C144.6 40.8 143.2 40.4 142 39.9C140.9 39.4 139.9 38.8 139.1 38.1C138.3 37.3 137.6 36.4 137.2 35.3C136.8 34.2 136.6 32.9 136.6 31.4C136.6 29.9 136.9 28.5 137.5 27.3C138.1 26.1 139 25.1 140.1 24.2C141.2 23.3 142.5 22.6 144 22.1C145.5 21.6 147.1 21.3 148.9 21.3C151 21.3 152.9 21.6 154.7 22.3C156.4 22.9 157.9 23.9 159.2 25.1L156.5 29.2C155.3 28.3 154.1 27.6 152.8 27.2C151.6 26.7 150.3 26.5 149 26.5C147.5 26.5 146.3 26.8 145.6 27.4C144.8 27.9 144.4 28.7 144.4 29.6C144.4 30.2 144.5 30.7 144.8 31.1C145.1 31.5 145.5 31.8 146.1 32.1C146.8 32.4 147.6 32.7 148.6 33C149.6 33.2 150.8 33.5 152.2 33.9C153.8 34.3 155.2 34.8 156.3 35.3C157.5 35.8 158.4 36.4 159.2 37.2C160 37.9 160.6 38.8 161 39.9C161.4 40.9 161.6 42.1 161.6 43.5C161.6 45.2 161.3 46.7 160.7 47.9C160.1 49.2 159.2 50.3 158.1 51.1C157 52 155.6 52.7 154.1 53.1C152.5 53.5 150.8 53.7 149 53.7C146.5 53.7 144.3 53.3 142.4 52.5C140.5 51.6 138.4 50.4 136 48.8Z" fill="#0F172A"/>
  <defs>
    <linearGradient id="paint0_linear_1_2" x1="8" y1="8" x2="56" y2="56" gradientUnits="userSpaceOnUse">
      <stop stop-color="#1E3A8A"/>
      <stop offset="0.6" stop-color="#2563EB"/>
      <stop offset="1" stop-color="#14B8A6"/>
    </linearGradient>
  </defs>
</svg>
